<?xml version="1.0" standalone="no"?>
<!DOCTYPE svg PUBLIC "-//W3C//DTD SVG 20010904//EN"
 "http://www.w3.org/TR/2001/REC-SVG-20010904/DTD/svg10.dtd">
<svg version="1.0" xmlns="http://www.w3.org/2000/svg"
 width="417.000000pt" height="417.000000pt" viewBox="0 0 417.000000 417.000000"
 preserveAspectRatio="xMidYMid meet">
<metadata>
Created by potrace 1.11, written by Peter Selinger 2001-2013
</metadata>
<g transform="translate(0.000000,417.000000) scale(0.100000,-0.100000)"
fill="#000000" stroke="none">
<path d="M1395 3615 c-22 -6 -54 -20 -70 -30 -33 -21 -99 -75 -91 -75 3 0 -6
-12 -21 -27 -20 -23 -63 -93 -68 -113 -1 -3 -5 -13 -9 -22 -4 -9 -8 -22 -10
-30 -1 -7 -4 -17 -7 -23 -4 -5 -5 -20 -4 -32 1 -13 -2 -23 -6 -23 -4 0 -6 -16
-4 -36 1 -23 -3 -38 -11 -41 -8 -3 -12 -8 -9 -12 2 -4 -1 -8 -8 -8 -7 0 -31
-12 -54 -26 -24 -15 -47 -27 -52 -27 -6 0 -16 -8 -23 -19 -7 -10 -15 -18 -18
-17 -10 1 -100 -65 -100 -74 0 -6 -6 -10 -12 -10 -7 0 -37 -24 -65 -54 -29
-30 -53 -52 -53 -49 0 6 -113 -136 -135 -172 -11 -16 -22 -32 -26 -35 -4 -3
-23 -36 -43 -75 -20 -38 -41 -76 -46 -82 -6 -7 -8 -13 -4 -13 3 0 0 -10 -8
-22 -8 -13 -18 -35 -21 -49 -7 -26 -37 -49 -37 -29 0 6 -7 10 -15 10 -8 0 -30
9 -50 20 -19 11 -38 20 -43 21 -20 4 -51 19 -57 29 -3 5 -10 8 -15 5 -5 -3
-11 -1 -14 4 -12 19 -45 -2 -52 -33 -4 -17 -7 -35 -5 -41 2 -5 4 -20 5 -33 2
-12 6 -25 9 -29 4 -3 7 -19 7 -33 0 -15 7 -33 15 -40 8 -7 12 -16 9 -21 -3 -5
0 -9 5 -9 6 0 11 -8 11 -18 0 -10 9 -24 19 -32 11 -7 18 -17 15 -21 -2 -5 5
-13 16 -19 11 -6 18 -15 15 -21 -4 -5 -1 -9 4 -9 23 0 54 -44 56 -77 1 -19 -1
-36 -4 -38 -7 -4 -5 -160 3 -220 8 -68 16 -109 27 -136 5 -14 11 -35 12 -47 1
-12 4 -22 8 -22 3 0 12 -19 19 -42 8 -24 20 -50 27 -59 7 -8 13 -21 13 -27 0
-7 5 -12 11 -12 5 0 7 -4 4 -10 -3 -5 -2 -10 4 -10 5 0 12 -8 16 -19 5 -18
139 -161 150 -161 6 0 24 -14 56 -42 10 -10 19 -15 19 -11 0 3 8 -1 18 -10 25
-23 175 -96 184 -91 4 3 9 -5 9 -18 9 -163 45 -211 155 -209 36 0 125 38 144
60 35 41 56 49 105 40 51 -10 74 -13 155 -23 25 -4 59 -8 75 -11 17 -2 63 -6
102 -7 40 -2 73 -6 73 -10 0 -4 11 -3 24 2 13 5 26 6 29 4 7 -7 177 -7 184 -1
7 8 50 -17 86 -49 15 -13 58 -29 70 -26 4 1 7 -2 7 -8 0 -5 19 -2 43 6 41 15
87 53 87 74 0 10 12 14 42 11 9 -1 34 5 55 14 21 9 52 19 68 22 50 7 68 11
115 22 25 5 56 12 70 15 14 3 50 10 81 17 50 11 59 11 73 -3 9 -9 16 -20 16
-25 0 -8 25 -27 68 -50 17 -9 21 -9 15 0 -5 9 -3 9 8 1 18 -14 56 -9 75 11 9
8 19 15 24 15 5 0 20 16 33 35 13 19 27 33 30 30 4 -3 5 -2 2 2 -3 3 1 16 8
27 8 12 19 42 26 68 12 41 21 52 65 80 56 36 86 59 128 100 15 14 28 24 28 22
0 -3 23 21 51 53 60 68 104 136 141 214 24 51 31 58 81 78 30 12 61 24 68 25
8 2 25 8 39 13 14 6 28 9 33 6 4 -2 7 -1 7 4 0 4 10 9 23 10 34 3 51 8 65 17
7 4 16 6 18 3 3 -3 20 1 39 8 18 8 35 11 39 8 3 -4 6 -1 6 6 0 7 4 10 9 7 5
-3 22 1 37 9 16 8 34 15 41 15 12 0 122 104 124 117 0 5 3 17 7 28 3 11 6 54
6 95 0 61 -5 84 -25 120 -26 48 -91 120 -109 120 -5 0 -10 4 -10 9 0 10 -97
41 -142 45 -18 2 -39 -1 -45 -7 -9 -6 -13 -6 -13 1 0 17 -106 -20 -122 -43 -4
-5 -8 -6 -8 -2 0 11 -47 -23 -92 -67 -41 -40 -44 -42 -45 -23 -2 37 -118 305
-143 327 -3 3 -11 17 -19 33 -8 15 -18 27 -23 27 -4 0 -8 5 -8 11 0 15 -91
126 -167 204 -17 18 -30 35 -28 37 2 2 5 35 6 73 3 71 -23 182 -45 197 -6 4
-7 8 -3 8 4 0 -6 20 -23 45 -17 25 -29 45 -26 45 3 0 -8 15 -25 32 -16 18 -29
36 -29 40 0 5 -8 8 -17 8 -9 0 -14 3 -10 6 7 7 -41 54 -55 54 -5 0 -6 5 -3 10
3 6 0 10 -8 10 -7 0 -23 9 -35 20 -12 11 -26 20 -32 20 -5 0 -10 3 -10 8 0 4
-12 13 -27 19 -115 50 -118 51 -183 57 -40 3 -147 -19 -167 -36 -7 -6 -13 -7
-13 -2 0 4 -6 -1 -14 -12 -8 -10 -17 -16 -21 -12 -11 11 -125 -96 -125 -118 0
-8 -3 -14 -7 -15 -5 0 -16 -2 -25 -4 -10 -2 -18 0 -18 4 0 4 -10 8 -22 8 -13
1 -36 4 -53 7 -61 11 -142 18 -230 21 -49 2 -93 3 -96 4 -7 1 -23 51 -21 64 1
4 -4 10 -12 13 -8 3 -12 12 -9 20 3 8 -1 14 -8 14 -7 0 -9 3 -6 6 4 4 -8 25
-26 48 -91 116 -188 155 -302 121z m1336 -302 c13 -16 12 -17 -3 -4 -17 13
-22 21 -14 21 2 0 10 -8 17 -17z m-126 -42 c-9 -8 -36 -10 -30 -2 2 4 11 8 20
8 8 0 13 -3 10 -6z m121 -27 c1 -9 -1 -13 -4 -9 -4 4 -7 10 -7 13 0 4 -4 14
-9 22 -7 12 -6 13 4 3 8 -7 15 -20 16 -29z m-39 11 c0 -8 -4 -15 -9 -15 -10 0
-11 14 -1 23 9 10 10 9 10 -8z m119 -60 c0 -28 -8 -24 -13 5 -2 11 1 20 5 20
4 0 8 -11 8 -25z m58 9 c3 -8 2 -12 -4 -9 -6 3 -10 10 -10 16 0 14 7 11 14 -7z
m-97 -9 c0 -8 -4 -12 -9 -9 -5 3 -6 10 -3 15 9 13 12 11 12 -6z m83 -27 c0 -6
-3 -8 -7 -5 -3 4 -13 1 -22 -6 -14 -11 -14 -10 -2 6 15 20 31 22 31 5z m35 -6
c-3 -3 -11 0 -18 7 -9 10 -8 11 6 5 10 -3 15 -9 12 -12z m-95 -52 c0 -5 -2
-10 -4 -10 -3 0 -8 5 -11 10 -3 6 -1 10 4 10 6 0 11 -4 11 -10z m154 -41 c3
-3 -4 -5 -14 -6 -11 -1 -22 2 -24 6 -5 8 30 8 38 0z m-39 -58 c3 -5 2 -12 -3
-15 -5 -3 -9 1 -9 9 0 17 3 19 12 6z"/>
</g>
</svg>
